<svg
  xmlns="http://www.w3.org/2000/svg"
  viewBox="0 0 66 23"
  fill="none"
>
  <g clip-path="url(#clip0_337_19744)">
    <path
      fill-rule="evenodd"
      clip-rule="evenodd"
      d="M39.7276 7.64025C38.6974 7.64025 37.8818 7.85417 37.0663 8.32478C37.0663 5.97173 37.0663 3.78981 37.1521 3.0625L32.1299 3.96094V4.38877L32.645 4.47433C33.3318 4.60268 33.5465 4.98772 33.6752 5.88616C33.804 7.68304 33.7611 17.138 33.6752 18.721C35.0059 19.0205 36.4224 19.2344 37.8389 19.2344C41.788 19.2344 44.1489 16.7958 44.1489 12.9453C44.1918 9.86496 42.2602 7.64025 39.7276 7.64025ZM38.0106 18.3787C37.7102 18.3787 37.3238 18.3787 37.1092 18.2932C37.0234 17.2664 36.9804 12.9025 37.0234 9.05208C37.4526 8.92374 37.7531 8.83817 38.1394 8.83817C39.7705 8.83817 40.672 10.7634 40.672 13.1164C40.672 16.1112 39.5559 18.3787 38.0106 18.3787Z"
      fill="#737373"
    />
    <path
      fill-rule="evenodd"
      clip-rule="evenodd"
      d="M13.4148 3.36191H0.322754V4.04643L1.05247 4.13199C2.03974 4.26034 2.38314 4.8593 2.55484 6.27113C2.76946 8.92366 2.68361 13.7581 2.55484 16.0684C2.42606 17.4802 2.03974 18.122 1.05247 18.2075L0.322754 18.3359V18.9348H8.73599V18.3359L7.83457 18.2075C6.84731 18.122 6.50391 17.4802 6.33221 16.0684C6.24636 15.0844 6.20344 13.5442 6.20344 11.619L8.00627 11.7045C9.12231 11.7045 9.63741 12.603 9.85203 13.8437H10.5388V8.53862H9.85203C9.63741 9.77932 9.12231 10.6778 8.00627 10.6778L6.20344 10.7633C6.20344 8.23914 6.28928 5.88609 6.33221 4.47426H8.95062C10.9681 4.47426 11.9983 5.71496 12.728 7.93966L13.4577 7.72574L13.4148 3.36191Z"
      fill="#737373"
    />
    <path
      fill-rule="evenodd"
      clip-rule="evenodd"
      d="M17.6214 7.51193C21.3559 7.51193 23.2016 10.0361 23.2016 13.3732C23.2016 16.5391 21.1412 19.2344 17.4068 19.2344C13.6723 19.2344 11.8266 16.7102 11.8266 13.3732C11.8266 10.1645 13.9299 7.51193 17.6214 7.51193ZM17.4068 8.23924C15.7756 8.23924 15.3464 10.4639 15.3464 13.3304C15.3464 16.154 16.0761 18.4215 17.5785 18.4215C19.2955 18.4215 19.7247 16.1968 19.7247 13.3304C19.7247 10.5495 18.995 8.23924 17.4068 8.23924Z"
      fill="#737373"
    />
    <path
      fill-rule="evenodd"
      clip-rule="evenodd"
      d="M45.1361 13.416C45.1361 10.3784 47.0677 7.46918 50.8451 7.46918C53.9786 7.46918 55.438 9.77945 55.438 12.817H48.5272C48.4413 15.5551 49.772 17.5659 52.4762 17.5659C53.6781 17.5659 54.2791 17.2664 55.0088 16.753L55.3093 17.1381C54.5796 18.1649 52.9484 19.1917 50.8451 19.1917C47.5399 19.2344 45.1361 16.8386 45.1361 13.416ZM48.5701 12.0469L52.047 11.9614C52.047 10.464 51.8324 8.23927 50.5446 8.23927C49.2998 8.23927 48.656 10.3356 48.5701 12.0469Z"
      fill="#737373"
    />
    <path
      fill-rule="evenodd"
      clip-rule="evenodd"
      d="M64.3235 8.11089C63.422 7.72585 62.2631 7.51193 60.8895 7.51193C58.1423 7.51193 56.4253 9.13768 56.4253 11.0629C56.4253 12.9881 57.6701 13.801 59.473 14.4C61.3187 15.0845 61.8338 15.5979 61.8338 16.4535C61.8338 17.352 61.147 18.1648 59.9881 18.1648C58.5715 18.1648 57.5414 17.352 56.7258 15.1273L56.2107 15.2556L56.2965 18.5071C57.198 18.8921 58.8291 19.1916 60.2456 19.1916C63.1645 19.1916 65.0102 17.6942 65.0102 15.4267C65.0102 13.8866 64.1947 12.9881 62.2631 12.2608C60.2027 11.4479 59.43 10.9346 59.43 9.95055C59.43 8.96655 60.1168 8.3248 60.9753 8.3248C62.306 8.3248 63.2074 9.13768 63.8942 11.1485L64.4093 11.0201L64.3235 8.11089Z"
      fill="#737373"
    />
    <path
      fill-rule="evenodd"
      clip-rule="evenodd"
      d="M32.8597 7.81146C31.6149 7.08415 29.3828 7.42642 28.1809 10.1217L28.2667 7.51198L23.2875 8.49599V8.92381L23.8026 9.00938C24.4894 9.09494 24.7898 9.43721 24.8328 10.4212C24.9615 12.2181 24.9186 15.2984 24.8328 16.8814C24.7469 17.7798 24.4464 18.2077 23.8026 18.2932L23.2875 18.3788V18.9778H30.1983V18.3788L29.2969 18.2932C28.5672 18.2077 28.3096 17.7798 28.2667 16.8814C28.1379 15.4696 28.138 12.6459 28.1809 10.8918C28.5672 10.3784 30.1983 9.90781 31.6578 10.8918L32.8597 7.81146Z"
      fill="#737373"
    />
  </g>
  <defs>
    <clipPath id="clip0_337_19744">
      <rect
        width="64.6875"
        height="22.5"
        fill="white"
        transform="translate(0.322754 0.25)"
      />
    </clipPath>
  </defs>
</svg>