<svg xmlns="http://www.w3.org/2000/svg" fill="none" viewBox="0 0 24 24" style="--secondaryIconColor:#39b54a;--primaryIconColor:#1b1b1b" class="h-12 w-12 shrink-0 transition-all" hight="50px" width="50px"><path stroke="var(--primaryIconColor, #1c1b18)" stroke-linecap="round" stroke-linejoin="round" stroke-width="1.5" d="M16 6a4 4 0 0 0-8 0m0 4.5v3m8-3v3"></path><path stroke="var(--secondaryIconColor, #39b54a)" stroke-linecap="round" stroke-linejoin="round" stroke-width="1.5" d="M21 12v3.6c0 2.24 0 3.36-.436 4.216a4 4 0 0 1-1.748 1.748C17.96 22 16.84 22 14.6 22H9.4c-2.24 0-3.36 0-4.216-.436a4 4 0 0 1-1.748-1.748C3 18.96 3 17.84 3 15.6V12m2 0h14c.932 0 1.398 0 1.765-.152a2 2 0 0 0 1.083-1.083C22 10.398 22 9.932 22 9v0c0-.932 0-1.398-.152-1.765a2 2 0 0 0-1.083-1.083C20.398 6 19.932 6 19 6H5c-.932 0-1.398 0-1.765.152a2 2 0 0 0-1.083 1.083C2 7.602 2 8.068 2 9v0c0 .932 0 1.398.152 1.765a2 2 0 0 0 1.083 1.083C3.602 12 4.068 12 5 12"></path></svg>