<svg viewBox="0 0 24 24" fill="none" xmlns="http://www.w3.org/2000/svg">
  <path d="M7.85437 9.1875H4.5V19.5H7.85437V9.1875Z" fill="#2A2A2A" />
  <path
    d="M16.9913 9.30844C16.9556 9.29719 16.9219 9.285 16.8844 9.27469C16.8394 9.26438 16.7944 9.25594 16.7484 9.24844C16.5703 9.21281 16.3753 9.1875 16.1466 9.1875C14.1909 9.1875 12.9506 10.6097 12.5419 11.1591V9.1875H9.1875V19.5H12.5419V13.875C12.5419 13.875 15.0769 10.3444 16.1466 12.9375C16.1466 15.2522 16.1466 19.5 16.1466 19.5H19.5V12.5409C19.5 10.9828 18.4322 9.68438 16.9913 9.30844Z"
    fill="#2A2A2A" />
  <path
    d="M6.14062 7.78125C7.04672 7.78125 7.78125 7.04672 7.78125 6.14062C7.78125 5.23453 7.04672 4.5 6.14062 4.5C5.23453 4.5 4.5 5.23453 4.5 6.14062C4.5 7.04672 5.23453 7.78125 6.14062 7.78125Z"
    fill="#2A2A2A" />
</svg>